 <!DOCTYPE svg PUBLIC "-//W3C//DTD SVG 1.1//EN" "http://www.w3.org/Graphics/SVG/1.1/DTD/svg11.dtd">
<svg xmlns="http://www.w3.org/2000/svg" id="image" transform="translate(45,45) scale(10)" style="width: 10px; height: 10px; background-color: white; position: relative;">
<g/>
<g>
<path d="M 0.5 8.4 L 9.7 8.4" fill="none" id="17" stroke="#000000" stroke-linejoin="round" stroke-width="4"/>
<path d="M 0.5 8.4 L 9.7 8.4" fill="none" id="16" stroke="#000000" stroke-linejoin="round" stroke-width="4"/>
<path d="M 0.4 4.5 L 9.7 4.5" fill="none" id="15" stroke="#000000" stroke-linejoin="round" stroke-width="2"/>
<path d="M 0.4 4.5 L 9.7 4.5" fill="none" id="14" stroke="#000000" stroke-linejoin="round" stroke-width="2"/>
<path d="M 0.6 3.4 L 0.7 3.4 L 0.7 3.4 L 0.7 3.4 L 0.8 3.4 L 0.8 3.4 L 0.8 3.4 L 0.9 3.4 L 0.9 3.4 L 0.9 3.4 L 1 3.4 L 1 3.4 L 1 3.4 L 1 3.4 L 1.1 3.4 L 1.1 3.4 L 1.1 3.4 L 1.2 3.4 L 1.2 3.4 L 1.2 3.4 L 1.3 3.4 L 1.3 3.4 L 1.3 3.4 L 1.4 3.4 L 1.4 3.4 L 1.4 3.4 L 1.5 3.4 L 1.5 3.4 L 1.5 3.4 L 1.6 3.4 L 1.6 3.4 L 1.6 3.4 L 1.7 3.4 L 1.7 3.4 L 1.7 3.4 L 1.8 3.4 L 1.8 3.4 L 1.8 3.5 L 1.9 3.5 L 1.9 3.5 L 2 3.5 L 2 3.5 L 2 3.5 L 2.1 3.5 L 2.1 3.5 L 2.1 3.5 L 2.1 3.5 L 2.2 3.5 L 2.2 3.5 L 2.2 3.5 L 2.3 3.5 L 2.3 3.5 L 2.3 3.5 L 2.3 3.5 L 2.4 3.5 L 2.4 3.5 L 2.4 3.5 L 2.4 3.5 L 2.5 3.5 L 2.6 3.5 L 2.6 3.5 L 2.7 3.5 L 2.8 3.5 L 2.8 3.5 L 2.8 3.5 L 2.9 3.5 L 2.9 3.5 L 2.9 3.5 L 3 3.5 L 3 3.5 L 3 3.5 L 3.1 3.5 L 3.1 3.5 L 3.2 3.5 L 3.3 3.5 L 3.4 3.5 L 3.5 3.5 L 3.6 3.5 L 3.7 3.5 L 3.8 3.5 L 3.9 3.5 L 4 3.5 L 4 3.5 L 4.2 3.5 L 4.3 3.5 L 4.3 3.5 L 4.5 3.5 L 4.6 3.5 L 4.7 3.5 L 4.8 3.5 L 4.9 3.5 L 4.9 3.5 L 5 3.5 L 5 3.5 L 5 3.5 L 5.1 3.5 L 5.1 3.5 L 5.1 3.5 L 5.2 3.5 L 5.2 3.5 L 5.2 3.5 L 5.3 3.5 L 5.4 3.5 L 5.4 3.5 L 5.5 3.5 L 5.5 3.5 L 5.6 3.5 L 5.7 3.5 L 5.7 3.5 L 5.8 3.5 L 5.8 3.5 L 5.8 3.5 L 5.8 3.5 L 5.8 3.6 L 5.9 3.6 L 6 3.6 L 6 3.6 L 6.1 3.7 L 6.2 3.7 L 6.3 3.8 L 6.4 3.9 L 6.5 4 L 6.6 4.1 L 6.7 4.3 L 6.8 4.4 L 6.8 4.5 L 6.9 4.6 L 7 4.7 L 7 4.9 L 7.1 5 L 7.1 5 L 7.1 5.1 L 7.2 5.2 L 7.2 5.2 L 7.2 5.3 L 7.2 5.3 L 7.2 5.4 L 7.2 5.4 L 7.2 5.4 L 7.2 5.5 L 7.2 5.5 L 7.2 5.6 L 7.2 5.6 L 7.2 5.7 L 7.2 5.7 L 7.1 5.8 L 7 5.9 L 6.9 6 L 6.8 6 L 6.7 6.1 L 6.6 6.2 L 6.5 6.3 L 6.4 6.3 L 6.3 6.3 L 6.2 6.4 L 6.1 6.4 L 6 6.4 L 5.9 6.5 L 5.8 6.5 L 5.7 6.5 L 5.6 6.5 L 5.5 6.5 L 5.3 6.5 L 5.2 6.5 L 5.1 6.5 L 4.9 6.5 L 4.8 6.5 L 4.6 6.5 L 4.5 6.5 L 4.4 6.5 L 4.2 6.5 L 4.2 6.5 L 4.1 6.5 L 3.9 6.5 L 3.9 6.5 L 3.8 6.5 L 3.8 6.5 L 3.7 6.5 L 3.7 6.4 L 3.7 6.4" fill="none" id="9" stroke="#000000" stroke-linejoin="round" stroke-width="2" transform="translate(10000000000000008,9999999999999964)"/>
<path d="M 0.6 3.4 L 0.7 3.4 L 0.7 3.4 L 0.7 3.4 L 0.8 3.4 L 0.8 3.4 L 0.8 3.4 L 0.9 3.4 L 0.9 3.4 L 0.9 3.4 L 1 3.4 L 1 3.4 L 1 3.4 L 1 3.4 L 1.1 3.4 L 1.1 3.4 L 1.1 3.4 L 1.2 3.4 L 1.2 3.4 L 1.2 3.4 L 1.3 3.4 L 1.3 3.4 L 1.3 3.4 L 1.4 3.4 L 1.4 3.4 L 1.4 3.4 L 1.5 3.4 L 1.5 3.4 L 1.5 3.4 L 1.6 3.4 L 1.6 3.4 L 1.6 3.4 L 1.7 3.4 L 1.7 3.4 L 1.7 3.4 L 1.8 3.4 L 1.8 3.4 L 1.8 3.5 L 1.9 3.5 L 1.9 3.5 L 2 3.5 L 2 3.5 L 2 3.5 L 2.1 3.5 L 2.1 3.5 L 2.1 3.5 L 2.1 3.5 L 2.2 3.5 L 2.2 3.5 L 2.2 3.5 L 2.3 3.5 L 2.3 3.5 L 2.3 3.5 L 2.3 3.5 L 2.4 3.5 L 2.4 3.5 L 2.4 3.5 L 2.4 3.5 L 2.5 3.5 L 2.6 3.5 L 2.6 3.5 L 2.7 3.5 L 2.8 3.5 L 2.8 3.5 L 2.8 3.5 L 2.9 3.5 L 2.9 3.5 L 2.9 3.5 L 3 3.5 L 3 3.5 L 3 3.5 L 3.1 3.5 L 3.1 3.5 L 3.2 3.5 L 3.3 3.5 L 3.4 3.5 L 3.5 3.5 L 3.6 3.5 L 3.7 3.5 L 3.8 3.5 L 3.9 3.5 L 4 3.5 L 4 3.5 L 4.2 3.5 L 4.3 3.5 L 4.3 3.5 L 4.5 3.5 L 4.6 3.5 L 4.7 3.5 L 4.8 3.5 L 4.9 3.5 L 4.9 3.5 L 5 3.5 L 5 3.5 L 5 3.5 L 5.1 3.5 L 5.1 3.5 L 5.1 3.5 L 5.2 3.5 L 5.2 3.5 L 5.2 3.5 L 5.3 3.5 L 5.4 3.5 L 5.4 3.5 L 5.5 3.5 L 5.5 3.5 L 5.6 3.5 L 5.7 3.5 L 5.7 3.5 L 5.8 3.5 L 5.8 3.5 L 5.8 3.5 L 5.8 3.5 L 5.8 3.6 L 5.9 3.6 L 6 3.6 L 6 3.6 L 6.1 3.7 L 6.2 3.7 L 6.3 3.8 L 6.4 3.9 L 6.5 4 L 6.6 4.1 L 6.7 4.3 L 6.8 4.4 L 6.8 4.5 L 6.9 4.6 L 7 4.7 L 7 4.9 L 7.1 5 L 7.1 5 L 7.1 5.1 L 7.2 5.2 L 7.2 5.2 L 7.2 5.3 L 7.2 5.3 L 7.2 5.4 L 7.2 5.4 L 7.2 5.4 L 7.2 5.5 L 7.2 5.5 L 7.2 5.6 L 7.2 5.6 L 7.2 5.7 L 7.2 5.7 L 7.1 5.8 L 7 5.9 L 6.9 6 L 6.8 6 L 6.7 6.1 L 6.6 6.2 L 6.5 6.3 L 6.4 6.3 L 6.3 6.3 L 6.2 6.4 L 6.1 6.4 L 6 6.4 L 5.9 6.5 L 5.8 6.5 L 5.7 6.5 L 5.6 6.5 L 5.5 6.5 L 5.3 6.5 L 5.2 6.5 L 5.1 6.5 L 4.9 6.5 L 4.8 6.5 L 4.6 6.5 L 4.5 6.5 L 4.4 6.5 L 4.2 6.5 L 4.2 6.5 L 4.1 6.5 L 3.9 6.5 L 3.9 6.5 L 3.8 6.5 L 3.8 6.5 L 3.7 6.5 L 3.7 6.4 L 3.7 6.4" fill="none" id="8" stroke="#000000" stroke-linejoin="round" stroke-width="2" transform="translate(10000000000000008,9999999999999964)"/>
<path d="M 0.5 2.7 L 6.9 5.7" fill="none" id="6" stroke="#000000" stroke-linejoin="round" stroke-width="2" transform="translate(10000000000000008,10000000000000008)"/>
<path d="M 0.5 2.7 L 6.9 5.7" fill="none" id="5" stroke="#000000" stroke-linejoin="round" stroke-width="2" transform="translate(10000000000000008,10000000000000008)"/>
<path d="M 0.3 1.3 L 9.8 1.3" fill="none" id="3" stroke="#000000" stroke-linejoin="round" stroke-width="1"/>
<path d="M 0.3 1.3 L 9.8 1.3" fill="none" id="2" stroke="#000000" stroke-linejoin="round" stroke-width="1"/>
<path d="M 607 573 L 52.7 45.9" fill="none" id="1" stroke="#000000" stroke-linejoin="round" stroke-width="10"/>
<path d="M 607 573 L 52.7 45.9" fill="none" id="0" stroke="#000000" stroke-linejoin="round" stroke-width="10"/>
</g>
<g/>
<rect x="0.5" y="3.1" width="9.4" height="0" stroke-dasharray="5, 5" stroke="#4169E1" fill="none" stroke-width="2"/>
<rect x="0.5" y="3.1" width="9.4" height="0" stroke-dasharray="5, 5" stroke="#4169E1" fill="none" stroke-width="2"/>
</svg>